# xmcd
#
# Track frame offsets: 
#        150
#        17562
#        31087
#        55292
#        68057
#        82085
#        96957
#        109062
#        127187
#        141982
#        154367
#        167805
#        183805
#        203987
#        221632
#        235910
#        253837
#        272212
#        287512
#        301137
#
# Disc length: 4368 seconds
#
# Revision: 3
# Processed by: cddbd v1.5.2PL0 Copyright (c) Steve Scherf et al.
# Submitted via: ExactAudioCopy v0.99pb5
#
DISCID=28110e14
DTITLE=Various Artist - Superfunk- The Funkiest Album In The World...Ever! CD
DTITLE=2
DYEAR=1996
DGENRE=Funk
TTITLE0=Curtis Mayfield - Superfly
TTITLE1=O'Jays - Back Stabbers
TTITLE2=Isley Brothers - That Lady
TTITLE3=Ike And Tina Turner - Nutbush City Limits
TTITLE4=Wild Cherry - Play That Funky Music
TTITLE5=Edwin Starr - War
TTITLE6=Otis Redding - (I Can't Get No) Satisfaction
TTITLE7=The Temptations - Ball Of Confusion
TTITLE8=Rose Royce - Car Wash
TTITLE9=Betty Wright - Shoorah Shoorah
TTITLE10=Banbarra - Shack Up
TTITLE11=Chic - Le Freak
TTITLE12=Rufus - Tell Me Something Good
TTITLE13=Diesel - Never Miss Your Water
TTITLE14=Black Machine - How Gee
TTITLE15=Young Disciples - Aparently Nothin'
TTITLE16=Carleen Anderson - Mama Said
TTITLE17=Incognito Feat. Jocelyn Brown - Always There
TTITLE18=Gil Scott-Heron - The Revolution Will Not Be Televised
TTITLE19=James Brown - Sex Machine (Live)
EXTD=Double CD
EXTT0=
EXTT1=
EXTT2=
EXTT3=
EXTT4=
EXTT5=
EXTT6=
EXTT7=
EXTT8=
EXTT9=
EXTT10=
EXTT11=
EXTT12=
EXTT13=
EXTT14=
EXTT15=
EXTT16=
EXTT17=
EXTT18=
EXTT19=
PLAYORDER=
